<svg width="24" height="24" viewBox="0 0 24 24" fill="none" xmlns="http://www.w3.org/2000/svg">
<rect x="0.5" y="0.5" width="23" height="23" rx="11.5" fill="#FAFAFC"/>
<path d="M17.3334 18C17.3334 17.0696 17.3334 16.6044 17.2186 16.2259C16.9601 15.3736 16.2931 14.7067 15.4408 14.4482C15.0623 14.3333 14.5971 14.3333 13.6667 14.3333H10.3334C9.40304 14.3333 8.93785 14.3333 8.55932 14.4482C7.70705 14.7067 7.04011 15.3736 6.78157 16.2259C6.66675 16.6044 6.66675 17.0696 6.66675 18M15.0001 9C15.0001 10.6569 13.6569 12 12.0001 12C10.3432 12 9.00008 10.6569 9.00008 9C9.00008 7.34315 10.3432 6 12.0001 6C13.6569 6 15.0001 7.34315 15.0001 9Z" stroke="#6B7280" stroke-width="1.33333" stroke-linecap="round" stroke-linejoin="round"/>
<rect x="0.5" y="0.5" width="23" height="23" rx="11.5" stroke="#FAFAFC"/>
</svg>
