<svg width="64" height="64" viewBox="0 0 64 64" fill="none" xmlns="http://www.w3.org/2000/svg">
<rect x="0.5" y="0.5" width="63" height="63" rx="31.5" fill="#222429"/>
<path d="M42.6673 44C42.6673 42.1392 42.6673 41.2089 42.4377 40.4518C41.9206 38.7473 40.5867 37.4134 38.8822 36.8963C38.1251 36.6667 37.1947 36.6667 35.334 36.6667H28.6673C26.8066 36.6667 25.8762 36.6667 25.1191 36.8963C23.4146 37.4134 22.0807 38.7473 21.5636 40.4518C21.334 41.2089 21.334 42.1392 21.334 44M38.0007 26C38.0007 29.3137 35.3144 32 32.0007 32C28.6869 32 26.0007 29.3137 26.0007 26C26.0007 22.6863 28.6869 20 32.0007 20C35.3144 20 38.0007 22.6863 38.0007 26Z" stroke="#D4D4D4" stroke-width="2.66667" stroke-linecap="round" stroke-linejoin="round"/>
<rect x="0.5" y="0.5" width="63" height="63" rx="31.5" stroke="#222429"/>
</svg>
