<svg width="28" height="28" viewBox="0 0 28 28" fill="none" xmlns="http://www.w3.org/2000/svg">
<path d="M2.3335 8.16663L11.8592 14.8346C12.6306 15.3746 13.0163 15.6446 13.4358 15.7492C13.8064 15.8415 14.194 15.8415 14.5645 15.7492C14.984 15.6446 15.3697 15.3746 16.1411 14.8346L25.6668 8.16663M7.9335 23.3333H20.0668C22.027 23.3333 23.0071 23.3333 23.7558 22.9518C24.4144 22.6163 24.9498 22.0808 25.2854 21.4223C25.6668 20.6736 25.6668 19.6935 25.6668 17.7333V10.2666C25.6668 8.30644 25.6668 7.32635 25.2854 6.57766C24.9498 5.91909 24.4144 5.38366 23.7558 5.0481C23.0071 4.66663 22.027 4.66663 20.0668 4.66663H7.9335C5.97331 4.66663 4.99322 4.66663 4.24453 5.0481C3.58596 5.38366 3.05053 5.91909 2.71497 6.57766C2.3335 7.32635 2.3335 8.30644 2.3335 10.2666V17.7333C2.3335 19.6935 2.3335 20.6736 2.71497 21.4223C3.05053 22.0808 3.58596 22.6163 4.24453 22.9518C4.99322 23.3333 5.97331 23.3333 7.9335 23.3333Z" stroke="currentColor" stroke-width="2" stroke-linecap="round" stroke-linejoin="round"/>
</svg>
