<svg width="181" height="18" fill="none" xmlns="http://www.w3.org/2000/svg"><path d="M9.177 3.151c-3.36 0-5.662 2.613-5.662 5.844 0 3.207 2.301 5.844 5.662 5.844 2.585 0 4.655-1.602 5.222-4.214H9.177v-3.26H19.39v3.257h-1.808c-.416 4.371-3.983 7.369-8.404 7.369C3.801 17.99 0 14.165 0 8.995 0 3.826 3.801 0 9.177 0c1.966 0 3.903.595 5.61 2.018L12.82 4.525c-1.06-.905-2.298-1.374-3.644-1.374ZM20.628 8.995C20.628 3.826 24.43 0 29.598 0c5.145 0 8.92 3.826 8.92 8.995 0 5.17-3.775 8.996-8.92 8.996-5.168 0-8.97-3.826-8.97-8.996Zm8.97 5.74c3.128 0 5.404-2.403 5.404-5.74 0-3.336-2.273-5.739-5.403-5.739-3.155 0-5.456 2.403-5.456 5.74 0 3.336 2.304 5.739 5.456 5.739ZM40.793 8.995c0-5.169 3.801-8.995 8.97-8.995 5.145 0 8.92 3.826 8.92 8.995 0 5.17-3.775 8.996-8.92 8.996-5.169 0-8.97-3.826-8.97-8.996Zm8.97 5.74c3.128 0 5.404-2.403 5.404-5.74 0-3.336-2.273-5.739-5.403-5.739-3.155 0-5.456 2.403-5.456 5.74 0 3.336 2.301 5.739 5.456 5.739ZM61.165 17.776V.198h5.144c5.3 0 8.919 3.232 8.919 8.79 0 5.557-3.62 8.788-8.919 8.788h-5.144Zm5.144-3.256c3.466 0 5.404-1.783 5.404-5.533 0-3.749-1.938-5.532-5.404-5.532h-1.678V14.52h1.678ZM83.624.198c3.514 0 6.438 2.068 6.438 6.023 0 2.43-1.294 4.239-3.18 5.197l4.061 6.358h-4.032l-3.494-5.61h-2.249v5.61h-3.465V.198h5.92Zm-.077 8.814c1.525 0 2.997-.388 2.997-2.79 0-2.432-1.472-2.767-2.997-2.767h-2.379v5.557h2.379ZM103.869.198v3.257h-7.498v3.878h6.515v3.256h-6.515v3.931h7.806v3.256H92.905V.198h10.964ZM105.99 8.995c0-5.169 3.878-8.995 9.177-8.995 5.274 0 8.737 3.826 8.737 8.995h-3.337c0-3.231-2.144-5.844-5.403-5.844-3.284 0-5.662 2.613-5.662 5.844 0 3.284 2.378 5.894 5.508 5.894.983 0 1.965-.207 2.843-.801l-3.308-3.309 2.301-2.301 7.212 7.212-2.301 2.3-1.63-1.629c-1.602 1.242-3.361 1.63-5.12 1.63-5.142 0-9.017-3.826-9.017-8.996ZM126.386 11.624V.198h3.463v11.426c0 1.99 1.06 3.103 2.998 3.103 1.937 0 2.997-1.113 2.997-3.103V.198h3.463v11.426c0 3.98-2.819 6.359-6.464 6.359-3.644 0-6.457-2.378-6.457-6.359ZM152.959.198v3.257h-7.495v3.878h6.515v3.256h-6.515v3.931h7.806v3.256h-11.272V.198h10.961ZM161.366 3.155c-1.242 0-2.095.699-2.095 1.706 0 .854.441 1.448 2.172 2.095.801.283 1.473.49 2.249.749 2.612.905 3.98 2.455 3.98 5.015 0 2.819-2.326 5.274-5.946 5.274-2.455 0-4.654-.906-6.54-2.819l1.938-2.483c1.602 1.396 3.078 2.147 4.756 2.147 1.242 0 2.249-.776 2.249-1.965 0-.93-.542-1.553-1.965-2.043l-2.224-.748c-3.103-1.035-4.215-2.998-4.215-5.068 0-3.05 2.483-5.015 5.638-5.015 2.326 0 3.903.983 5.249 2.249l-1.913 2.455c-1.266-1.057-2.43-1.55-3.333-1.55ZM180.65.198v3.257h-4.291v14.321h-3.466V3.455h-4.291V.198h12.048Z" fill="currentColor"></path></svg>