<svg width="28" height="28" viewBox="0 0 28 28" fill="none" xmlns="http://www.w3.org/2000/svg">
<path d="M17.5 10.5H17.5117M17.5 17.5C21.366 17.5 24.5 14.366 24.5 10.5C24.5 6.63401 21.366 3.5 17.5 3.5C13.634 3.5 10.5 6.63401 10.5 10.5C10.5 10.8193 10.5214 11.1336 10.5628 11.4415C10.6309 11.948 10.6649 12.2013 10.642 12.3615C10.6181 12.5284 10.5877 12.6184 10.5055 12.7655C10.4265 12.9068 10.2873 13.046 10.009 13.3243L4.04673 19.2866C3.84496 19.4884 3.74407 19.5893 3.67192 19.707C3.60795 19.8114 3.56081 19.9252 3.53224 20.0442C3.5 20.1785 3.5 20.3212 3.5 20.6065V22.6333C3.5 23.2867 3.5 23.6134 3.62716 23.863C3.73901 24.0825 3.91749 24.261 4.13701 24.3728C4.38657 24.5 4.71327 24.5 5.36667 24.5H7.39347C7.67882 24.5 7.8215 24.5 7.95577 24.4678C8.07481 24.4392 8.18861 24.392 8.293 24.3281C8.41073 24.2559 8.51162 24.155 8.7134 23.9533L14.6757 17.991C14.954 17.7127 15.0932 17.5735 15.2345 17.4945C15.3816 17.4123 15.4716 17.3819 15.6385 17.358C15.7987 17.3351 16.052 17.3691 16.5585 17.4372C16.8664 17.4786 17.1807 17.5 17.5 17.5Z" stroke="currentColor" stroke-width="2" stroke-linecap="round" stroke-linejoin="round"/>
</svg>
