<svg width="42" height="42" viewBox="0 0 42 42" fill="none" xmlns="http://www.w3.org/2000/svg">
<rect width="42" height="42" rx="10.5" fill="#E0E7FF"/>
<path d="M9.625 20.5625C9.625 14.5281 14.6145 9.625 20.7551 9.625C23.0258 9.625 25.169 10.3165 26.9279 11.4477L24.3694 14.6851C23.3136 14.0562 22.0666 13.7108 20.7551 13.7108C16.9174 13.7108 13.7827 16.7912 13.7827 20.5625C13.7827 24.3344 16.9174 27.4142 20.7551 27.4142C23.9535 27.4142 26.6086 25.3397 27.4398 22.4795H20.9154V18.6449H34.125V22.4795H31.7262C30.7985 27.5712 26.2249 31.5 20.7557 31.5C14.6145 31.5006 9.625 26.5975 9.625 20.5625Z" fill="#111827"/>
</svg>
