<svg width="144" height="14" viewBox="0 0 144 14" fill="none" xmlns="http://www.w3.org/2000/svg">
<path d="M7.1249 2.45097C4.51555 2.45097 2.72894 4.48266 2.72894 6.99592C2.72894 9.49001 4.51555 11.5409 7.1249 11.5409C9.13155 11.5409 10.7388 10.295 11.1789 8.26333H7.1249V5.72851H15.0534V8.26093H13.6495C13.3266 11.6607 10.557 13.9918 7.1249 13.9918C2.95137 13.9918 0 11.0162 0 6.99592C0 2.97566 2.95137 0 7.1249 0C8.65082 0 10.1552 0.462401 11.4802 1.56929L9.9543 3.51952C9.13155 2.81514 8.17008 2.45097 7.1249 2.45097Z" fill="currentColor"/>
<path d="M16.0156 6.99592C16.0156 2.97566 18.967 0 22.9803 0C26.9744 0 29.9043 2.97566 29.9043 6.99592C29.9043 11.0162 26.9744 13.9918 22.9803 13.9918C18.967 13.9918 16.0156 11.0162 16.0156 6.99592ZM22.9803 11.4594C25.4079 11.4594 27.1753 9.59064 27.1753 6.99592C27.1753 4.4012 25.4103 2.53243 22.9803 2.53243C20.5312 2.53243 18.7446 4.4012 18.7446 6.99592C18.7446 9.59064 20.5336 11.4594 22.9803 11.4594Z" fill="currentColor"/>
<path d="M31.6709 6.99592C31.6709 2.97566 34.6223 0 38.6356 0C42.6297 0 45.5596 2.97566 45.5596 6.99592C45.5596 11.0162 42.6297 13.9918 38.6356 13.9918C34.6223 13.9918 31.6709 11.0162 31.6709 6.99592ZM38.6356 11.4594C41.0631 11.4594 42.8306 9.59064 42.8306 6.99592C42.8306 4.4012 41.0655 2.53243 38.6356 2.53243C36.1864 2.53243 34.3998 4.4012 34.3998 6.99592C34.3998 9.59064 36.1864 11.4594 38.6356 11.4594Z" fill="currentColor"/>
<path d="M47.4873 13.825V0.154175H51.4815C55.5952 0.154175 58.4055 2.66743 58.4055 6.98957C58.4055 11.3117 55.5952 13.825 51.4815 13.825H47.4873ZM51.4815 11.2925C54.1721 11.2925 55.6765 9.90534 55.6765 6.98957C55.6765 4.07381 54.1721 2.6866 51.4815 2.6866H50.178V11.2925H51.4815Z" fill="currentColor"/>
<path d="M64.924 0.154175C67.653 0.154175 69.9227 1.7618 69.9227 4.83809C69.9227 6.72842 68.9182 8.13479 67.4544 8.87991L70.6067 13.825H67.476L64.7638 9.4621H63.0178V13.825H60.3271V0.154175H64.924ZM64.8642 7.00874C66.0481 7.00874 67.1914 6.70686 67.1914 4.83809C67.1914 2.94775 66.0481 2.6866 64.8642 2.6866H63.0178V7.00874H64.8642Z" fill="currentColor"/>
<path d="M80.641 0.154175V2.6866H74.8196V5.70299H79.878V8.23542H74.8196V11.2925H80.8802V13.825H72.1289V0.154175H80.641Z" fill="currentColor"/>
<path d="M82.2881 6.99592C82.2881 2.97566 85.2992 0 89.413 0C93.5076 0 96.1959 2.97566 96.1959 6.99592H93.6057C93.6057 4.48266 91.941 2.45097 89.4106 2.45097C86.861 2.45097 85.0146 4.48266 85.0146 6.99592C85.0146 9.54991 86.861 11.5792 89.291 11.5792C90.054 11.5792 90.8169 11.4187 91.4986 10.9563L88.9299 8.38312L90.7165 6.59341L96.3155 12.2021L94.5289 13.9918L93.2636 12.7244C92.02 13.69 90.6543 13.9918 89.2886 13.9918C85.2969 13.9918 82.2881 11.0162 82.2881 6.99592Z" fill="currentColor"/>
<path d="M98.123 9.04043V0.154175H100.811V9.04043C100.811 10.5882 101.634 11.4531 103.138 11.4531C104.643 11.4531 105.466 10.5882 105.466 9.04043V0.154175H108.154V9.04043C108.154 12.1359 105.965 13.9855 103.136 13.9855C100.307 13.9855 98.123 12.1359 98.123 9.04043Z" fill="currentColor"/>
<path d="M118.754 0.154419V2.68685H112.935V5.70324H117.993V8.23566H112.935V11.2928H118.995V13.8252H110.244V0.154419H118.754Z" fill="currentColor"/>
<path d="M125.28 2.45336C124.316 2.45336 123.654 2.99722 123.654 3.78067C123.654 4.44432 123.996 4.90673 125.34 5.40986C125.962 5.63028 126.483 5.7908 127.086 5.99205C129.114 6.69644 130.176 7.90155 130.176 9.89252C130.176 12.0847 128.37 13.9942 125.56 13.9942C123.654 13.9942 121.946 13.2898 120.482 11.802L121.987 9.87095C123.23 10.9563 124.376 11.5409 125.68 11.5409C126.643 11.5409 127.426 10.9371 127.426 10.0123C127.426 9.28876 127.005 8.80479 125.9 8.42385L124.173 7.84166C121.764 7.03665 120.901 5.51048 120.901 3.90046C120.901 1.52856 122.829 0 125.278 0C127.084 0 128.308 0.76428 129.353 1.74898L127.868 3.65848C126.885 2.8367 125.981 2.45336 125.28 2.45336Z" fill="currentColor"/>
<path d="M140.252 0.154175V2.6866H136.921V13.825H134.23V2.6866H130.898V0.154175H140.252Z" fill="currentColor"/>
</svg>
